{
	"patcher" : 	{
		"fileversion" : 1,
		"appversion" : 		{
			"major" : 8,
			"minor" : 5,
			"revision" : 1,
			"architecture" : "x64",
			"modernui" : 1
		}
,
		"classnamespace" : "box",
		"rect" : [ 59.0, 119.0, 640.0, 480.0 ],
		"bglocked" : 0,
		"openinpresentation" : 0,
		"default_fontsize" : 12.0,
		"default_fontface" : 0,
		"default_fontname" : "Arial",
		"gridonopen" : 1,
		"gridsize" : [ 15.0, 15.0 ],
		"gridsnaponopen" : 1,
		"objectsnaponopen" : 1,
		"statusbarvisible" : 2,
		"toolbarvisible" : 1,
		"lefttoolbarpinned" : 0,
		"toptoolbarpinned" : 0,
		"righttoolbarpinned" : 0,
		"bottomtoolbarpinned" : 0,
		"toolbars_unpinned_last_save" : 0,
		"tallnewobj" : 0,
		"boxanimatetime" : 200,
		"enablehscroll" : 1,
		"enablevscroll" : 1,
		"devicewidth" : 0.0,
		"description" : "",
		"digest" : "",
		"tags" : "",
		"style" : "",
		"subpatcher_template" : "",
		"assistshowspatchername" : 0,
		"boxes" : [ 			{
				"box" : 				{
					"id" : "obj-6",
					"maxclass" : "newobj",
					"numinlets" : 2,
					"numoutlets" : 2,
					"outlettype" : [ "", "" ],
					"patching_rect" : [ 144.773489312833533, 339.0, 69.0, 22.0 ],
					"text" : "zl.swap 0 1"
				}

			}
, 			{
				"box" : 				{
					"id" : "obj-100",
					"maxclass" : "newobj",
					"numinlets" : 0,
					"numoutlets" : 1,
					"outlettype" : [ "" ],
					"patching_rect" : [ 277.0, 370.935282357673486, 61.0, 22.0 ],
					"text" : "r clear-list"
				}

			}
, 			{
				"box" : 				{
					"id" : "obj-1",
					"maxclass" : "newobj",
					"numinlets" : 2,
					"numoutlets" : 1,
					"outlettype" : [ "int" ],
					"patching_rect" : [ 50.0, 133.0, 29.5, 22.0 ],
					"text" : "int"
				}

			}
, 			{
				"box" : 				{
					"id" : "obj-2",
					"maxclass" : "message",
					"numinlets" : 2,
					"numoutlets" : 1,
					"outlettype" : [ "" ],
					"patching_rect" : [ 394.0, 109.0, 55.0, 22.0 ],
					"text" : "break $1"
				}

			}
, 			{
				"box" : 				{
					"id" : "obj-1542",
					"maxclass" : "newobj",
					"numinlets" : 0,
					"numoutlets" : 1,
					"outlettype" : [ "" ],
					"patching_rect" : [ 263.000000000000057, 272.136454357673529, 43.0, 22.0 ],
					"text" : "r reset"
				}

			}
, 			{
				"box" : 				{
					"id" : "obj-1538",
					"maxclass" : "message",
					"numinlets" : 2,
					"numoutlets" : 1,
					"outlettype" : [ "" ],
					"patching_rect" : [ 135.273489312833533, 59.863545642326471, 81.0, 22.0 ],
					"text" : "set $1_tempo"
				}

			}
, 			{
				"box" : 				{
					"id" : "obj-1539",
					"maxclass" : "newobj",
					"numinlets" : 1,
					"numoutlets" : 1,
					"outlettype" : [ "" ],
					"patching_rect" : [ 135.273489312833533, 109.0, 47.0, 22.0 ],
					"text" : "receive"
				}

			}
, 			{
				"box" : 				{
					"id" : "obj-1525",
					"maxclass" : "message",
					"numinlets" : 2,
					"numoutlets" : 1,
					"outlettype" : [ "" ],
					"patching_rect" : [ 430.461403815501683, 208.136454357673529, 37.0, 22.0 ],
					"text" : "ssept"
				}

			}
, 			{
				"box" : 				{
					"id" : "obj-1526",
					"maxclass" : "message",
					"numinlets" : 2,
					"numoutlets" : 1,
					"outlettype" : [ "" ],
					"patching_rect" : [ 391.461403815501683, 208.136454357673529, 38.0, 22.0 ],
					"text" : "esept"
				}

			}
, 			{
				"box" : 				{
					"id" : "obj-1527",
					"maxclass" : "message",
					"numinlets" : 2,
					"numoutlets" : 1,
					"outlettype" : [ "" ],
					"patching_rect" : [ 345.914425189834731, 208.136454357673529, 41.0, 22.0 ],
					"text" : "squint"
				}

			}
, 			{
				"box" : 				{
					"id" : "obj-1528",
					"maxclass" : "message",
					"numinlets" : 2,
					"numoutlets" : 1,
					"outlettype" : [ "" ],
					"patching_rect" : [ 302.000000000000057, 208.136454357673529, 41.0, 22.0 ],
					"text" : "equint"
				}

			}
, 			{
				"box" : 				{
					"id" : "obj-1529",
					"maxclass" : "message",
					"numinlets" : 2,
					"numoutlets" : 1,
					"outlettype" : [ "" ],
					"patching_rect" : [ 269.000000000000057, 208.136454357673529, 31.0, 22.0 ],
					"text" : "strip"
				}

			}
, 			{
				"box" : 				{
					"id" : "obj-1511",
					"maxclass" : "message",
					"numinlets" : 2,
					"numoutlets" : 1,
					"outlettype" : [ "" ],
					"patching_rect" : [ 233.500000000000057, 208.136454357673529, 32.0, 22.0 ],
					"text" : "etrip"
				}

			}
, 			{
				"box" : 				{
					"id" : "obj-1512",
					"maxclass" : "message",
					"numinlets" : 2,
					"numoutlets" : 1,
					"outlettype" : [ "" ],
					"patching_rect" : [ 197.000000000000057, 208.136454357673529, 32.0, 22.0 ],
					"text" : "qtrip"
				}

			}
, 			{
				"box" : 				{
					"id" : "obj-1513",
					"maxclass" : "message",
					"numinlets" : 2,
					"numoutlets" : 1,
					"outlettype" : [ "" ],
					"patching_rect" : [ 135.273489312833533, 208.136454357673529, 57.0, 22.0 ],
					"text" : "sixteenth"
				}

			}
, 			{
				"box" : 				{
					"id" : "obj-1514",
					"maxclass" : "message",
					"numinlets" : 2,
					"numoutlets" : 1,
					"outlettype" : [ "" ],
					"patching_rect" : [ 92.273489312833533, 208.136454357673529, 41.0, 22.0 ],
					"text" : "eighth"
				}

			}
, 			{
				"box" : 				{
					"id" : "obj-1515",
					"maxclass" : "message",
					"numinlets" : 2,
					"numoutlets" : 1,
					"outlettype" : [ "" ],
					"patching_rect" : [ 50.0, 208.136454357673529, 47.0, 22.0 ],
					"text" : "quarter"
				}

			}
, 			{
				"box" : 				{
					"id" : "obj-1516",
					"maxclass" : "newobj",
					"numinlets" : 11,
					"numoutlets" : 11,
					"outlettype" : [ "bang", "bang", "bang", "bang", "bang", "bang", "bang", "bang", "bang", "bang", "" ],
					"patching_rect" : [ 50.0, 171.136454357673529, 441.734893128335216, 22.0 ],
					"text" : "sel 0 1 2 3 4 5 6 7 8 9"
				}

			}
, 			{
				"box" : 				{
					"id" : "obj-1517",
					"maxclass" : "newobj",
					"numinlets" : 2,
					"numoutlets" : 1,
					"outlettype" : [ "" ],
					"patching_rect" : [ 144.585574810165383, 293.136454357673529, 53.0, 22.0 ],
					"text" : "listMake"
				}

			}
, 			{
				"box" : 				{
					"comment" : "",
					"id" : "obj-1543",
					"index" : 1,
					"maxclass" : "inlet",
					"numinlets" : 0,
					"numoutlets" : 1,
					"outlettype" : [ "" ],
					"patching_rect" : [ 135.273489312833533, -0.136475000000019, 30.0, 30.0 ]
				}

			}
, 			{
				"box" : 				{
					"comment" : "",
					"id" : "obj-1544",
					"index" : 2,
					"maxclass" : "inlet",
					"numinlets" : 0,
					"numoutlets" : 1,
					"outlettype" : [ "" ],
					"patching_rect" : [ 170.273489312833533, -0.136475000000019, 30.0, 30.0 ]
				}

			}
, 			{
				"box" : 				{
					"comment" : "",
					"id" : "obj-1545",
					"index" : 1,
					"maxclass" : "outlet",
					"numinlets" : 1,
					"numoutlets" : 0,
					"patching_rect" : [ 144.585586160507148, 415.935282357673486, 30.0, 30.0 ]
				}

			}
 ],
		"lines" : [ 			{
				"patchline" : 				{
					"destination" : [ "obj-1516", 0 ],
					"source" : [ "obj-1", 0 ]
				}

			}
, 			{
				"patchline" : 				{
					"destination" : [ "obj-1517", 1 ],
					"source" : [ "obj-100", 0 ]
				}

			}
, 			{
				"patchline" : 				{
					"destination" : [ "obj-1517", 0 ],
					"source" : [ "obj-1511", 0 ]
				}

			}
, 			{
				"patchline" : 				{
					"destination" : [ "obj-1517", 0 ],
					"source" : [ "obj-1512", 0 ]
				}

			}
, 			{
				"patchline" : 				{
					"destination" : [ "obj-1517", 0 ],
					"source" : [ "obj-1513", 0 ]
				}

			}
, 			{
				"patchline" : 				{
					"destination" : [ "obj-1517", 0 ],
					"source" : [ "obj-1514", 0 ]
				}

			}
, 			{
				"patchline" : 				{
					"destination" : [ "obj-1517", 0 ],
					"source" : [ "obj-1515", 0 ]
				}

			}
, 			{
				"patchline" : 				{
					"destination" : [ "obj-1511", 0 ],
					"source" : [ "obj-1516", 4 ]
				}

			}
, 			{
				"patchline" : 				{
					"destination" : [ "obj-1512", 0 ],
					"source" : [ "obj-1516", 3 ]
				}

			}
, 			{
				"patchline" : 				{
					"destination" : [ "obj-1513", 0 ],
					"source" : [ "obj-1516", 2 ]
				}

			}
, 			{
				"patchline" : 				{
					"destination" : [ "obj-1514", 0 ],
					"source" : [ "obj-1516", 1 ]
				}

			}
, 			{
				"patchline" : 				{
					"destination" : [ "obj-1515", 0 ],
					"source" : [ "obj-1516", 0 ]
				}

			}
, 			{
				"patchline" : 				{
					"destination" : [ "obj-1525", 0 ],
					"source" : [ "obj-1516", 9 ]
				}

			}
, 			{
				"patchline" : 				{
					"destination" : [ "obj-1526", 0 ],
					"source" : [ "obj-1516", 8 ]
				}

			}
, 			{
				"patchline" : 				{
					"destination" : [ "obj-1527", 0 ],
					"source" : [ "obj-1516", 7 ]
				}

			}
, 			{
				"patchline" : 				{
					"destination" : [ "obj-1528", 0 ],
					"source" : [ "obj-1516", 6 ]
				}

			}
, 			{
				"patchline" : 				{
					"destination" : [ "obj-1529", 0 ],
					"source" : [ "obj-1516", 5 ]
				}

			}
, 			{
				"patchline" : 				{
					"destination" : [ "obj-6", 0 ],
					"source" : [ "obj-1517", 0 ]
				}

			}
, 			{
				"patchline" : 				{
					"destination" : [ "obj-1517", 0 ],
					"source" : [ "obj-1525", 0 ]
				}

			}
, 			{
				"patchline" : 				{
					"destination" : [ "obj-1517", 0 ],
					"source" : [ "obj-1526", 0 ]
				}

			}
, 			{
				"patchline" : 				{
					"destination" : [ "obj-1517", 0 ],
					"source" : [ "obj-1527", 0 ]
				}

			}
, 			{
				"patchline" : 				{
					"destination" : [ "obj-1517", 0 ],
					"source" : [ "obj-1528", 0 ]
				}

			}
, 			{
				"patchline" : 				{
					"destination" : [ "obj-1517", 0 ],
					"source" : [ "obj-1529", 0 ]
				}

			}
, 			{
				"patchline" : 				{
					"destination" : [ "obj-1539", 0 ],
					"source" : [ "obj-1538", 0 ]
				}

			}
, 			{
				"patchline" : 				{
					"destination" : [ "obj-1", 0 ],
					"source" : [ "obj-1539", 0 ]
				}

			}
, 			{
				"patchline" : 				{
					"destination" : [ "obj-1538", 0 ],
					"order" : 1,
					"source" : [ "obj-1543", 0 ]
				}

			}
, 			{
				"patchline" : 				{
					"destination" : [ "obj-2", 0 ],
					"order" : 0,
					"source" : [ "obj-1543", 0 ]
				}

			}
, 			{
				"patchline" : 				{
					"destination" : [ "obj-1517", 0 ],
					"source" : [ "obj-1544", 0 ]
				}

			}
, 			{
				"patchline" : 				{
					"destination" : [ "obj-1517", 0 ],
					"source" : [ "obj-2", 0 ]
				}

			}
, 			{
				"patchline" : 				{
					"destination" : [ "obj-1545", 0 ],
					"source" : [ "obj-6", 0 ]
				}

			}
 ]
	}

}
